<svg id="SvgjsSvg1001" width="288" height="288" xmlns="http://www.w3.org/2000/svg" version="1.1" xmlns:xlink="http://www.w3.org/1999/xlink" xmlns:svgjs="http://svgjs.com/svgjs"><defs id="SvgjsDefs1002"></defs><g id="SvgjsG1008" transform="matrix(0.9167,0,0,0.9167,11.952122761726372,9.856573553013803)"><svg xmlns="http://www.w3.org/2000/svg" enable-background="new 59.3 234 723.4 722.6" viewBox="59.3 234 723.4 903.25" width="288" height="288"><circle cx="420.9" cy="595.3" r="75" fill="#ffffff" class="color000 svgShape"></circle><path d="M420.9,477c31.6,0,61.3,12.3,83.6,34.6c22.3,22.3,34.6,52,34.6,83.6s-12.3,61.3-34.6,83.6s-52,34.6-83.6,34.6  s-61.3-12.3-83.6-34.6c-22.3-22.3-34.6-52-34.6-83.6s12.3-61.3,34.6-83.6C359.7,489.3,389.4,477,420.9,477 M420.9,448  c-81.3,0-147.3,65.9-147.3,147.3s65.9,147.3,147.3,147.3s147.3-65.9,147.3-147.3S502.3,448,420.9,448L420.9,448z" fill="#ffffff" class="color000 svgShape"></path><path d="M420.9,405c50.8,0,98.6,19.8,134.6,55.7s55.7,83.7,55.7,134.6c0,50.8-19.8,98.6-55.7,134.6s-83.7,55.7-134.6,55.7  s-98.6-19.8-134.6-55.7c-35.9-35.9-55.7-83.7-55.7-134.6c0-50.8,19.8-98.6,55.7-134.6C322.3,424.8,370.1,405,420.9,405 M420.9,376  c-121.1,0-219.3,98.2-219.3,219.3s98.2,219.3,219.3,219.3s219.3-98.2,219.3-219.3S542.1,376,420.9,376L420.9,376z" fill="#ffffff" class="color000 svgShape"></path><path d="M420.9,332.2c35.5,0,70,7,102.4,20.7c31.3,13.3,59.5,32.2,83.6,56.4c24.2,24.2,43.1,52.3,56.4,83.6  c13.7,32.4,20.7,66.9,20.7,102.4s-7,70-20.7,102.4c-13.3,31.3-32.2,59.5-56.4,83.6c-24.2,24.2-52.3,43.1-83.6,56.4  c-32.4,13.7-66.9,20.7-102.4,20.7s-70-7-102.4-20.7c-31.3-13.3-59.5-32.2-83.6-56.4c-24.2-24.2-43.1-52.3-56.4-83.6  c-13.7-32.4-20.7-66.9-20.7-102.4s7-70,20.7-102.4c13.3-31.3,32.2-59.5,56.4-83.6s52.3-43.1,83.6-56.4  C351,339.1,385.4,332.2,420.9,332.2 M420.9,303.2c-161.3,0-292.1,130.8-292.1,292.1s130.8,292.1,292.1,292.1  s292.1-130.8,292.1-292.1S582.3,303.2,420.9,303.2L420.9,303.2z" fill="#ffffff" class="color000 svgShape"></path><path d="M420.9,262.6c44.9,0,88.5,8.8,129.5,26.1c39.6,16.8,75.2,40.7,105.8,71.3c30.6,30.6,54.6,66.1,71.3,105.8  c17.3,41,26.1,84.6,26.1,129.5c0,44.9-8.8,88.5-26.1,129.5c-16.8,39.6-40.7,75.2-71.3,105.8c-30.6,30.6-66.1,54.6-105.8,71.3  c-41,17.3-84.6,26.1-129.5,26.1s-88.5-8.8-129.5-26.1c-39.6-16.8-75.2-40.7-105.8-71.3c-30.6-30.6-54.6-66.1-71.3-105.8  c-17.3-41-26.1-84.6-26.1-129.5c0-44.9,8.8-88.5,26.1-129.5c16.8-39.6,40.7-75.2,71.3-105.8s66.1-54.6,105.8-71.3  C332.5,271.4,376,262.6,420.9,262.6 M420.9,233.6c-199.8,0-361.7,161.9-361.7,361.7S221.2,957,420.9,957S782.6,795,782.6,595.3  S620.7,233.6,420.9,233.6L420.9,233.6z" fill="#ffffff" class="color000 svgShape"></path><text x="59.3" y="971.6" font-family="'Helvetica Neue', Helvetica, Arial-Unicode, Arial, Sans-serif" font-size="5" font-weight="bold" svgjs:data="{&quot;leading&quot;:&quot;1.3&quot;}">Created by Gilbert Bages</text><text x="59.3" y="976.6" fill="#fff" font-family="'Helvetica Neue', Helvetica, Arial-Unicode, Arial, Sans-serif" font-size="5" font-weight="bold" svgjs:data="{&quot;leading&quot;:&quot;1.3&quot;}">from the Noun Project</text></svg></g></svg>