<svg id="SvgjsSvg1001" width="288" height="288" xmlns="http://www.w3.org/2000/svg" version="1.1" xmlns:xlink="http://www.w3.org/1999/xlink" xmlns:svgjs="http://svgjs.com/svgjs"><defs id="SvgjsDefs1002"></defs><g id="SvgjsG1008" transform="matrix(0.9167,0,0,0.9167,11.995200000000011,11.995200000000011)"><svg xmlns="http://www.w3.org/2000/svg" viewBox="0 0 24 24" width="288" height="288"><path fill="#000" d="M19,7H16V6A4,4,0,0,0,8,6V7H5A1,1,0,0,0,4,8V19a3,3,0,0,0,3,3H17a3,3,0,0,0,3-3V8A1,1,0,0,0,19,7ZM10,6a2,2,0,0,1,4,0V7H10Zm8,13a1,1,0,0,1-1,1H7a1,1,0,0,1-1-1V9H8v1a1,1,0,0,0,2,0V9h4v1a1,1,0,0,0,2,0V9h2Z" class="color0E0E0E svgShape"></path></svg></g></svg>